<mxfile host="app.diagrams.net" modified="2022-08-23T06:51:03.399Z" agent="5.0 (Macintosh; Intel Mac OS X 10_15_7) AppleWebKit/537.36 (KHTML, like Gecko) Chrome/104.0.0.0 Safari/537.36" etag="vf0tqGWPrDOaVEuzdOSa" version="20.2.4" type="github">
  <diagram id="yPxyJZ8AM_hMuL3Unpa9" name="complex gitflow">
    <mxGraphModel dx="1186" dy="653" grid="1" gridSize="10" guides="1" tooltips="1" connect="1" arrows="1" fold="1" page="1" pageScale="1" pageWidth="1100" pageHeight="850" math="0" shadow="0">
      <root>
        <mxCell id="0" />
        <mxCell id="1" parent="0" />
        <mxCell id="TF9lmMwwDMIkTmnjo8U0-6" style="edgeStyle=orthogonalEdgeStyle;rounded=0;orthogonalLoop=1;jettySize=auto;html=1;" edge="1" parent="1" source="TF9lmMwwDMIkTmnjo8U0-2" target="TF9lmMwwDMIkTmnjo8U0-3">
          <mxGeometry relative="1" as="geometry" />
        </mxCell>
        <mxCell id="TF9lmMwwDMIkTmnjo8U0-2" value="Handly" style="rounded=0;whiteSpace=wrap;html=1;fillColor=#FFE6CC;" vertex="1" parent="1">
          <mxGeometry x="490" y="329" width="270" height="30" as="geometry" />
        </mxCell>
        <mxCell id="TF9lmMwwDMIkTmnjo8U0-7" style="edgeStyle=orthogonalEdgeStyle;rounded=0;orthogonalLoop=1;jettySize=auto;html=1;entryX=0.5;entryY=0;entryDx=0;entryDy=0;" edge="1" parent="1" source="TF9lmMwwDMIkTmnjo8U0-3" target="TF9lmMwwDMIkTmnjo8U0-4">
          <mxGeometry relative="1" as="geometry" />
        </mxCell>
        <mxCell id="TF9lmMwwDMIkTmnjo8U0-3" value="Screen" style="rounded=0;whiteSpace=wrap;html=1;fillColor=#FFFFCC;" vertex="1" parent="1">
          <mxGeometry x="490" y="399" width="270" height="30" as="geometry" />
        </mxCell>
        <mxCell id="TF9lmMwwDMIkTmnjo8U0-4" value="" style="rounded=0;whiteSpace=wrap;html=1;fillColor=#E6FFCC;" vertex="1" parent="1">
          <mxGeometry x="490" y="470" width="270" height="170" as="geometry" />
        </mxCell>
        <mxCell id="TF9lmMwwDMIkTmnjo8U0-9" value="设备自检" style="rounded=0;whiteSpace=wrap;html=1;fillColor=#CCFF99;" vertex="1" parent="1">
          <mxGeometry x="500" y="480" width="120" height="30" as="geometry" />
        </mxCell>
        <mxCell id="TF9lmMwwDMIkTmnjo8U0-10" value="屏幕状态控制" style="rounded=0;whiteSpace=wrap;html=1;fillColor=#CCFF99;" vertex="1" parent="1">
          <mxGeometry x="500" y="520" width="120" height="30" as="geometry" />
        </mxCell>
        <mxCell id="TF9lmMwwDMIkTmnjo8U0-11" value="继电器控制" style="rounded=0;whiteSpace=wrap;html=1;fillColor=#CCFF99;" vertex="1" parent="1">
          <mxGeometry x="500" y="600" width="120" height="30" as="geometry" />
        </mxCell>
        <mxCell id="TF9lmMwwDMIkTmnjo8U0-12" value="系统信息" style="rounded=0;whiteSpace=wrap;html=1;fillColor=#CCFF99;" vertex="1" parent="1">
          <mxGeometry x="630" y="520" width="120" height="30" as="geometry" />
        </mxCell>
        <mxCell id="TF9lmMwwDMIkTmnjo8U0-13" value="获取系统信息" style="rounded=0;whiteSpace=wrap;html=1;fillColor=#CCFF99;" vertex="1" parent="1">
          <mxGeometry x="630" y="600" width="120" height="30" as="geometry" />
        </mxCell>
        <mxCell id="TF9lmMwwDMIkTmnjo8U0-14" value="恢复网络设置" style="rounded=0;whiteSpace=wrap;html=1;fillColor=#B3FF66;" vertex="1" parent="1">
          <mxGeometry x="500" y="560" width="120" height="30" as="geometry" />
        </mxCell>
        <mxCell id="TF9lmMwwDMIkTmnjo8U0-15" value="清除应用数据" style="rounded=0;whiteSpace=wrap;html=1;fillColor=#CCFF99;" vertex="1" parent="1">
          <mxGeometry x="630" y="480" width="120" height="30" as="geometry" />
        </mxCell>
        <mxCell id="TF9lmMwwDMIkTmnjo8U0-16" value="播放盒设备信息" style="rounded=0;whiteSpace=wrap;html=1;fillColor=#CCFF99;" vertex="1" parent="1">
          <mxGeometry x="630" y="560" width="120" height="30" as="geometry" />
        </mxCell>
        <mxCell id="TF9lmMwwDMIkTmnjo8U0-17" value="SDK" style="text;html=1;align=center;verticalAlign=middle;resizable=0;points=[];autosize=1;strokeColor=none;fillColor=none;" vertex="1" parent="1">
          <mxGeometry x="710" y="440" width="50" height="30" as="geometry" />
        </mxCell>
      </root>
    </mxGraphModel>
  </diagram>
</mxfile>
